<?xml version="1.0" encoding="utf-8"?>
<!-- Generator: Adobe Illustrator 16.0.0, SVG Export Plug-In . SVG Version: 6.00 Build 0)  -->
<!DOCTYPE svg PUBLIC "-//W3C//DTD SVG 1.1//EN" "http://www.w3.org/Graphics/SVG/1.1/DTD/svg11.dtd">
<svg version="1.1" id="Capa_1" xmlns="http://www.w3.org/2000/svg" xmlns:xlink="http://www.w3.org/1999/xlink" x="0px" y="0px"
	 width="100px" height="100px" viewBox="0 0 100 100" enable-background="new 0 0 100 100" xml:space="preserve">
<g>
	<path fill="#00FFFF" d="M94.451,49.998c0,0-0.098,1.05-0.281,3.014c-0.372,1.927-0.006,4.928-1.366,8.393
		c-0.573,1.744-1.024,3.769-1.866,5.818c-1.031,1.977-2.141,4.11-3.33,6.392c-1.409,2.147-3.245,4.209-5.014,6.515
		c-2.037,2.037-4.416,3.988-6.831,6.099c-5.373,3.379-11.741,6.782-19.212,7.551c-1.909,0.195-3.592,0.634-5.776,0.622
		c-1.854-0.122-3.727-0.256-5.617-0.378c-1.878,0.024-3.836-0.476-5.837-1.062c-1.964-0.598-4.099-0.976-5.996-1.817
		c-7.697-3.172-14.62-8.722-19.859-15.858C8.465,67.93,5.982,59.013,5.549,49.998c0.634-4.854,0.427-8.392,2.202-13.101
		c1.074-4.623,3.52-8.355,5.703-12.198c5.246-7.124,12.156-12.698,19.865-15.857c7.764-2.696,15.87-4.136,23.219-2.635
		c3.574,0.183,7.094,1.658,10.412,2.781c3.324,1.158,6.001,3.293,8.819,4.781c2.415,2.11,4.788,4.063,6.831,6.1
		c1.763,2.305,3.599,4.379,5.013,6.514c1.184,2.281,2.293,4.428,3.324,6.404c0.835,2.049,1.287,4.062,1.866,5.806
		c1.36,3.465,1,6.478,1.366,8.405C94.353,48.949,94.451,49.998,94.451,49.998z M94.451,49.998c0,0-0.116-1.036-0.323-3
		c-0.396-1.928-0.079-4.929-1.482-8.368c-0.598-1.732-1.074-3.721-1.94-5.745c-1.085-1.928-2.263-4.002-3.519-6.222
		c-1.488-2.05-3.385-4.013-5.196-6.196c-2.062-1.939-4.55-3.672-6.996-5.538c-5.562-2.928-11.479-5.66-18.736-5.94
		c-7.008-0.952-14.352,0.987-21.164,3.854c-6.721,3.379-12.455,8.709-16.858,15.04c-1.702,3.465-3.818,6.819-4.586,10.467
		c-1.464,3.135-1.366,8.197-1.86,11.648c0.256,7.832,2.44,15.456,6.435,22.128c4.41,6.331,10.131,11.674,16.858,15.053
		c1.641,0.866,3.403,1.257,5.093,1.939c1.671,0.659,3.379,1.269,5.337,1.379c1.884,0.256,3.745,0.513,5.581,0.769
		c1.506,0.109,3.464-0.184,5.147-0.244c7.063-0.22,13.309-3.025,18.761-5.94c2.452-1.866,4.928-3.599,6.996-5.538
		c1.806-2.184,3.708-4.147,5.19-6.209c1.256-2.221,2.434-4.294,3.519-6.209c0.866-2.025,1.342-4.025,1.94-5.745
		c1.403-3.44,1.085-6.453,1.482-8.368C94.335,51.048,94.451,49.998,94.451,49.998z"/>
	<g>
		<path fill="#00FFFF" d="M24.079,54.854c0.055-0.366,0.226-0.671,0.494-0.902c0.274-0.232,0.61-0.342,0.994-0.342
			c0.39,0,0.695,0.134,0.921,0.402c0.22,0.256,0.299,0.586,0.226,0.951c-0.061,0.379-0.226,0.684-0.506,0.915
			c-0.28,0.244-0.61,0.354-0.982,0.354c-0.378,0-0.677-0.122-0.896-0.39C24.103,55.573,24.023,55.244,24.079,54.854z"/>
		<path fill="#00FFFF" d="M33.514,40.057h5.099c1.745,0,2.964,0.488,3.672,1.439c0.732,0.964,1.012,2.123,0.841,3.477
			c-0.17,1.379-0.792,2.537-1.86,3.465c-1.049,0.902-2.562,1.354-4.532,1.354h-2.678l-0.927,6.185h-1.988L33.514,40.057z
			 M41.138,44.839c0.128-0.83-0.03-1.525-0.481-2.062c-0.458-0.549-1.153-0.83-2.086-0.83h-3.349l-0.884,5.978h2.745
			c1.122,0,2.043-0.293,2.775-0.878C40.583,46.461,41.01,45.729,41.138,44.839z"/>
		<path fill="#00FFFF" d="M57.703,44.814c-0.128,1.086-0.579,2.049-1.342,2.891c-0.732,0.817-1.769,1.354-3.11,1.598l3.525,6.673
			h-2.489l-3.299-6.563h-2.251l-0.97,6.563h-1.988l2.379-15.919h5.16c1.641,0,2.818,0.488,3.519,1.439
			C57.575,42.46,57.862,43.57,57.703,44.814z M55.672,44.692c0.104-0.806-0.067-1.464-0.494-1.964
			c-0.433-0.5-1.098-0.757-1.988-0.757h-3.324l-0.848,5.538h2.659C54.099,47.51,55.428,46.57,55.672,44.692z"/>
		<path fill="#00FFFF" d="M68.175,56.231c-2.287,0-4.123-0.792-5.507-2.402c-1.385-1.61-1.909-3.574-1.574-5.892
			c0.33-2.306,1.403-4.245,3.214-5.807c1.83-1.574,3.897-2.354,6.197-2.354c1.531-0.024,2.879,0.342,4.062,1.098
			c1.183,0.769,2.043,1.781,2.58,3.074c0.542,1.28,0.689,2.659,0.445,4.123c-0.348,2.293-1.434,4.232-3.263,5.794
			C72.488,55.451,70.438,56.231,68.175,56.231z M68.304,54.292c1.702,0,3.257-0.585,4.666-1.78c1.397-1.195,2.245-2.696,2.55-4.525
			c0.299-1.794-0.043-3.282-1.037-4.465c-0.994-1.184-2.36-1.781-4.104-1.781c-1.757,0-3.33,0.598-4.727,1.806
			c-1.372,1.183-2.196,2.684-2.482,4.501c-0.292,1.806,0.067,3.293,1.08,4.489C65.254,53.707,66.608,54.292,68.304,54.292z"/>
	</g>
</g>
</svg>
