<?xml version="1.0" encoding="utf-8"?>
<!-- Generator: Adobe Illustrator 16.0.0, SVG Export Plug-In . SVG Version: 6.00 Build 0)  -->
<!DOCTYPE svg PUBLIC "-//W3C//DTD SVG 1.1//EN" "http://www.w3.org/Graphics/SVG/1.1/DTD/svg11.dtd">
<svg version="1.1" id="Capa_1" xmlns="http://www.w3.org/2000/svg" xmlns:xlink="http://www.w3.org/1999/xlink" x="0px" y="0px"
	 width="631px" height="85px" viewBox="0 0 631 85" enable-background="new 0 0 631 85" xml:space="preserve">
<g>
	<g>
		<path fill="#FFFFFF" d="M304.028,26.226c-16.271,0-28.837,10.081-28.837,26.68c0,14.458,10.637,25.964,28.855,25.96
			C322.38,78.87,333,67.343,333,52.888C333,36.307,320.436,26.226,304.028,26.226z M304.047,68.714
			c-10.901,0-13.861-9.092-13.861-17.362c0-7.519,4.535-14.953,13.843-14.953c9.478,0,13.963,7.22,13.963,14.927
			C317.991,59.722,315.097,68.708,304.047,68.714z M73.423,26.24c-17.173,0-25.621,12.037-25.621,26.564
			c0,16.521,10.615,26.095,28.85,26.095c7.73,0,13.717-1.379,18.976-4.002V64.261c-5.381,2.727-11.386,5.059-18.363,5.059
			c-8.867,0.006-15.078-4.621-15.722-12.699h38.133C99.675,39.042,93.888,26.24,73.423,26.24z M61.542,47.632
			c0.631-6.721,4.676-11.807,12.743-11.807c8.003,0,11.241,5.481,11.685,11.807H61.542z M118.87,38.853h-0.206V27.407l-12.772,0.027
			l0.025,50.28h14.37V59.255c0-7.204-0.007-20.478,11.677-20.478c2.589,0,5.148,0.352,6.41,1.05V26.645
			c-1.45-0.419-3.009-0.419-4.395-0.419C125.404,26.24,119.508,34.136,118.87,38.853z M45.953,20.313L45.94,9.554H4.36l0.007,68.191
			h15.012V47.848l25.299-0.017V37.095H19.379V20.313H45.953z M174.71,26.628c-1.483-0.402-2.977-0.402-4.4-0.402
			c-8.564,0-14.439,7.911-15.085,12.61l-0.226,0.017V27.407h-12.758v50.307h14.38V59.255c0-7.204,0-20.505,11.678-20.478
			c2.61-0.027,5.173,0.352,6.411,1.05V26.628z M262.896,68.714c-10.109,0-14.922-7.117-14.922-16.412
			c0-9.453,5.684-15.903,14.581-15.903c4.39,0,7.191,0.783,9.754,1.854l1.297-10.373c-3.958-1.03-8.146-1.654-13.958-1.654
			c-17.269,0-26.706,11.556-26.693,26.077c0,15.343,9.097,26.568,27.251,26.568c5.904,0,10.18-0.504,14.381-1.672l-0.684-10.818
			C271.434,67.364,266.945,68.714,262.896,68.714z M370.835,26.226c-7.518,0-13.609,2.252-18.128,8.027h-0.205l-0.003-6.846H338.89
			v50.307l14.382-0.016l-0.006-24.603c0-6.463,2.228-16.723,12.633-16.723c9.203,0,9.332,8.301,9.34,14.462v26.864H389.6
			l-0.013-31.752C389.587,34.591,383.908,26.217,370.835,26.226z M410.511,41.385c0-4.326,4.605-5.596,8.49-5.596
			c5.231,0,8.43,0.794,12.855,2.139l0.949-9.854c-4.475-0.88-8.907-1.857-15.647-1.857c-11.249,0-21.668,4.802-21.668,15.616
			c0,18.193,24.998,11.46,24.998,21.302c0,4.896-5.808,6.145-9.457,6.145c-4.931,0-9.606-1.232-14.14-3.307l-0.854,10.758
			c5.265,1.262,10.851,2.135,16.31,2.107c11.687,0,23.162-4.656,23.162-16.379C435.509,44.318,410.511,49.38,410.511,41.385z
			 M201.678,26.226c-16.315,0-28.854,10.081-28.854,26.68c0,14.482,10.639,25.994,28.854,25.994
			c18.331-0.029,28.931-11.535,28.931-25.994C230.608,36.307,218.063,26.226,201.678,26.226z M201.678,68.714
			c-10.955,0-13.861-9.092-13.861-17.362c0-7.519,4.505-14.953,13.861-14.953c9.42,0,13.904,7.22,13.904,14.953
			C215.582,59.763,212.727,68.714,201.678,68.714z"/>
	</g>
	<g>
		<path fill="#00FFFF" d="M450.441,81.522c-0.804,0-1.442-0.272-1.914-0.815c-0.474-0.543-0.663-1.193-0.567-1.949
			c0.094-0.804,0.449-1.454,1.063-1.95s1.3-0.744,2.057-0.744c0.803,0,1.441,0.272,1.914,0.815c0.472,0.544,0.661,1.194,0.567,1.949
			c-0.096,0.805-0.45,1.454-1.063,1.95C451.883,81.274,451.197,81.522,450.441,81.522z"/>
		<path fill="#00FFFF" d="M477.741,28.272h15.386c5.436,0,9.359,1.608,11.771,4.822c2.411,3.167,3.285,6.948,2.623,11.345
			c-0.662,4.538-2.647,8.32-5.956,11.345c-3.215,3.025-7.775,4.538-13.685,4.538h-12.054l-3.049,20.35h-2.836L477.741,28.272z
			 M504.756,44.156c0.567-4.018-0.213-7.233-2.34-9.644s-5.295-3.616-9.502-3.616h-12.763l-3.971,26.802h12.267
			c4.396,0,8.059-1.229,10.99-3.687C502.368,51.554,504.141,48.268,504.756,44.156z"/>
		<path fill="#00FFFF" d="M525.246,28.272h14.961c5.293,0,9.122,1.466,11.486,4.396c2.363,2.931,3.285,6.5,2.766,10.707
			c-0.426,3.876-1.975,7.126-4.645,9.749c-2.671,2.624-6.229,4.219-10.671,4.786l9.926,22.761h-3.19l-9.643-22.477h-0.993h-11.628
			l-3.333,22.477h-2.836L525.246,28.272z M551.693,43.021c0.426-3.734-0.39-6.688-2.446-8.863c-2.057-2.174-5.141-3.262-9.253-3.262
			h-12.338l-3.616,24.675h11.416c4.68,0,8.438-1.099,11.273-3.297C549.566,50.076,551.22,46.992,551.693,43.021z"/>
		<path fill="#00FFFF" d="M588.564,81.522c-7.517,0-13.497-2.646-17.939-7.941c-4.443-5.293-6.122-11.723-5.034-19.286
			c1.039-7.42,4.585-13.755,10.636-19.002c6.003-5.294,12.715-7.941,20.137-7.941c7.421,0,13.377,2.671,17.868,8.012
			c4.442,5.294,6.145,11.699,5.105,19.215c-1.135,7.422-4.704,13.779-10.707,19.073C602.674,78.899,595.984,81.522,588.564,81.522z
			 M588.564,78.899c6.711,0,12.786-2.411,18.223-7.232c5.389-4.774,8.626-10.588,9.714-17.442
			c0.992-6.712-0.474-12.432-4.396-17.159c-3.877-4.726-9.123-7.09-15.741-7.09c-6.712,0-12.811,2.411-18.293,7.232
			c-5.437,4.775-8.65,10.59-9.644,17.442c-0.992,6.713,0.473,12.456,4.396,17.23C576.698,76.559,581.945,78.899,588.564,78.899z"/>
	</g>
</g>
</svg>
