<?xml version="1.0" encoding="utf-8"?>
<!-- Generator: Adobe Illustrator 16.0.0, SVG Export Plug-In . SVG Version: 6.00 Build 0)  -->
<!DOCTYPE svg PUBLIC "-//W3C//DTD SVG 1.1//EN" "http://www.w3.org/Graphics/SVG/1.1/DTD/svg11.dtd">
<svg version="1.1" id="Capa_1" xmlns="http://www.w3.org/2000/svg" xmlns:xlink="http://www.w3.org/1999/xlink" x="0px" y="0px"
	 width="1000px" height="808.475px" viewBox="0 0 1000 808.475" enable-background="new 0 0 1000 808.475" xml:space="preserve">
<g>
	<rect x="34" y="37.661" fill="none" stroke="#FFFFFF" stroke-width="8" stroke-miterlimit="10" width="739" height="739"/>
	<g>
		<path fill="#FFFFFF" d="M558.198,668.829v-59.594c0-18.923,5.17-33.112,15.496-42.569c10.187-9.604,22.786-14.413,37.767-14.413
			c14.843,0,27.365,4.955,37.553,14.851c9.895,9.896,14.842,24.737,14.842,44.528v24.892h55.669v32.306H558.198z M634.601,636.523
			v-25.982c0-7.997-2.213-14.221-6.652-18.661c-4.44-4.44-10.079-6.661-16.917-6.661c-6.554,0-12.016,2.151-16.379,6.438
			c-4.364,4.294-6.546,10.01-6.546,17.14v27.727H634.601z"/>
		<path fill="#FFFFFF" d="M719.524,406.001v37.76l-58.726,34.057v19.214h58.726v32.305H558.198v-61.775
			c0-17.9,4.947-31.582,14.843-41.04c9.902-9.465,21.979-14.189,36.239-14.189c10.77,0,20.411,2.804,28.925,8.404
			c8.512,5.602,14.665,13.713,18.445,24.339L719.524,406.001z M588.106,467.776v29.255h43.652v-26.42
			c0-8.145-2.028-14.367-6.107-18.661c-4.072-4.295-9.38-6.438-15.934-6.438c-6.262,0-11.425,1.996-15.496,5.999
			S588.106,460.938,588.106,467.776z"/>
		<path fill="#FFFFFF" d="M722.136,309.078c0,24.008-7.928,43.952-23.785,59.808c-16.01,16.011-35.662,24.016-58.939,24.016
			c-23.433,0-43.299-8.082-59.602-24.23c-16.303-16.302-24.447-36.239-24.447-59.817s8.145-43.437,24.447-59.594
			c16.303-16.294,36.015-24.453,59.155-24.453c23.14,0,42.792,8.159,58.94,24.453C714.062,265.418,722.136,285.354,722.136,309.078z
			 M638.965,258.427c-14.843,0-27.135,4.878-36.892,14.627c-9.896,9.903-14.843,21.833-14.843,35.8
			c0,13.975,4.947,25.906,14.843,35.801c9.757,9.749,22.049,14.627,36.892,14.627c14.704,0,26.928-4.802,36.677-14.405
			c9.756-9.749,14.628-21.757,14.628-36.023c0-14.259-4.872-26.267-14.628-36.016C665.893,263.089,653.669,258.288,638.965,258.427z
			"/>
	</g>
	
		<line fill="none" stroke="#FFFFFF" stroke-width="7.8669" stroke-miterlimit="10" x1="777.204" y1="37.968" x2="667.067" y2="148.105"/>
	
		<line fill="none" stroke="#FFFFFF" stroke-width="7.8669" stroke-miterlimit="10" x1="966.011" y1="667.322" x2="855.874" y2="777.46"/>
	
		<line fill="none" stroke="#FFFFFF" stroke-width="7.8669" stroke-miterlimit="10" x1="855.874" y1="37.968" x2="966.011" y2="148.105"/>
	<line fill="none" stroke="#FFFFFF" stroke-width="8" stroke-miterlimit="10" x1="852" y1="41.661" x2="852" y2="781.661"/>
	<line fill="none" stroke="#FFFFFF" stroke-width="8" stroke-miterlimit="10" x1="769" y1="37.661" x2="958" y2="37.661"/>
	<line fill="none" stroke="#FFFFFF" stroke-width="8" stroke-miterlimit="10" x1="769" y1="776.661" x2="958" y2="776.661"/>
</g>
</svg>
